<svg width="91" height="40" viewBox="0 0 91 40" fill="none" xmlns="http://www.w3.org/2000/svg">
<rect width="91" height="40" rx="20" fill="#111111"/>
<path d="M26.4465 13.688H28.1265V28.312H26.4465V13.688ZM27.6785 19.48H30.3185V20.856H27.6785V19.48ZM22.6545 15.24H24.3025C24.3025 19.496 22.4945 23.256 17.7105 25.656L16.7665 24.376C20.7185 22.36 22.6545 19.432 22.6545 15.528V15.24ZM17.5025 15.24H23.5185V16.6H17.5025V15.24ZM41.8853 13.704H43.5653V21.56H41.8853V13.704ZM34.0133 22.248H35.6613V23.832H41.9013V22.248H43.5653V28.152H34.0133V22.248ZM35.6613 25.144V26.808H41.9013V25.144H35.6613ZM35.6773 14.36C37.9173 14.36 39.5493 15.752 39.5493 17.768C39.5493 19.768 37.9173 21.176 35.6773 21.176C33.4373 21.176 31.7893 19.768 31.7893 17.768C31.7893 15.752 33.4373 14.36 35.6773 14.36ZM35.6773 15.752C34.3653 15.752 33.4213 16.552 33.4213 17.768C33.4213 18.984 34.3653 19.784 35.6773 19.784C36.9893 19.784 37.9173 18.984 37.9173 17.768C37.9173 16.552 36.9893 15.752 35.6773 15.752ZM55.9 13.704H57.564V28.328H55.9V13.704ZM57.18 19.576H59.836V20.968H57.18V19.576ZM46.156 15.96H54.732V17.304H46.156V15.96ZM50.492 18.36C52.572 18.36 54.108 19.768 54.108 21.768C54.108 23.784 52.572 25.192 50.492 25.192C48.396 25.192 46.86 23.784 46.86 21.768C46.86 19.768 48.396 18.36 50.492 18.36ZM50.492 19.736C49.308 19.736 48.46 20.536 48.46 21.768C48.46 23 49.308 23.816 50.492 23.816C51.66 23.816 52.508 23 52.508 21.768C52.508 20.536 51.66 19.736 50.492 19.736ZM49.628 13.912H51.308V16.52H49.628V13.912ZM71.3388 13.704H73.0188V28.328H71.3388V13.704ZM67.0508 15.256H68.6988C68.6988 19.592 66.9708 23.272 61.9468 25.72L61.0668 24.376C65.2748 22.344 67.0508 19.448 67.0508 15.544V15.256ZM61.7868 15.256H67.8028V16.6H61.7868V15.256Z" fill="white"/>
</svg>
