<svg width="91" height="46" viewBox="0 0 91 46" fill="none" xmlns="http://www.w3.org/2000/svg">
<rect x="0.5" y="0.5" width="90" height="45" rx="22.5" fill="white"/>
<rect x="0.5" y="0.5" width="90" height="45" rx="22.5" stroke="#CACACB"/>
<path d="M16.7985 28.24H30.0465V29.616H16.7985V28.24ZM22.5585 25.264H24.2225V28.8H22.5585V25.264ZM18.3505 17.728H28.4625V22.352H20.0465V25.072H18.3825V21.024H26.7985V19.072H18.3505V17.728ZM18.3825 24.384H28.7985V25.744H18.3825V24.384ZM32.9093 18.16H42.2533V19.504H32.9093V18.16ZM31.5173 27.92H44.7333V29.296H31.5173V27.92ZM41.3573 18.16H43.0213V19.744C43.0213 21.696 43.0213 23.744 42.4773 26.832L40.7973 26.672C41.3573 23.776 41.3573 21.632 41.3573 19.744V18.16ZM50.124 17.776C52.3 17.776 53.868 19.776 53.868 22.928C53.868 26.08 52.3 28.096 50.124 28.096C47.948 28.096 46.38 26.08 46.38 22.928C46.38 19.776 47.948 17.776 50.124 17.776ZM50.124 19.296C48.86 19.296 47.98 20.656 47.98 22.928C47.98 25.216 48.86 26.592 50.124 26.592C51.388 26.592 52.268 25.216 52.268 22.928C52.268 20.656 51.388 19.296 50.124 19.296ZM55.884 16.704H57.564V31.328H55.884V16.704ZM57.18 22.4H59.836V23.792H57.18V22.4ZM60.9388 23.264H74.1868V24.624H60.9388V23.264ZM66.6988 23.856H68.3468V26.128H66.6988V23.856ZM66.6668 26.768H68.0908V27.136C68.0908 29.312 65.7708 30.928 62.3948 31.28L61.8508 30C64.7308 29.728 66.6668 28.496 66.6668 27.136V26.768ZM66.9548 26.768H68.3788V27.136C68.3788 28.544 70.2828 29.744 73.1788 30L72.6508 31.28C69.3068 30.928 66.9548 29.376 66.9548 27.136V26.768ZM67.5468 16.896C70.7628 16.896 72.7628 17.888 72.7628 19.616C72.7628 21.328 70.7628 22.336 67.5468 22.336C64.3468 22.336 62.3468 21.328 62.3468 19.616C62.3468 17.888 64.3468 16.896 67.5468 16.896ZM67.5468 18.16C65.3548 18.16 64.0748 18.672 64.0748 19.616C64.0748 20.528 65.3548 21.056 67.5468 21.056C69.7388 21.056 71.0348 20.528 71.0348 19.616C71.0348 18.672 69.7388 18.16 67.5468 18.16Z" fill="#111111"/>
</svg>
