<svg width="77" height="40" viewBox="0 0 77 40" fill="none" xmlns="http://www.w3.org/2000/svg">
<rect x="0.5" y="0.5" width="76" height="39" rx="19.5" fill="white"/>
<rect x="0.5" y="0.5" width="76" height="39" rx="19.5" stroke="#CACACB"/>
<path d="M17.1579 25.24H30.4059V26.616H17.1579V25.24ZM22.9179 22.264H24.5819V25.8H22.9179V22.264ZM18.7099 14.728H28.8219V19.352H20.4059V22.072H18.7419V18.024H27.1579V16.072H18.7099V14.728ZM18.7419 21.384H29.1579V22.744H18.7419V21.384ZM33.2686 15.16H42.6126V16.504H33.2686V15.16ZM31.8766 24.92H45.0926V26.296H31.8766V24.92ZM41.7166 15.16H43.3806V16.744C43.3806 18.696 43.3806 20.744 42.8366 23.832L41.1566 23.672C41.7166 20.776 41.7166 18.632 41.7166 16.744V15.16ZM56.9634 13.72H58.6434V24.312H56.9634V13.72ZM49.0914 26.68H59.0594V28.04H49.0914V26.68ZM49.0914 23.24H50.7714V27.192H49.0914V23.24ZM50.7554 14.696C52.9634 14.696 54.6274 16.2 54.6274 18.344C54.6274 20.456 52.9634 21.992 50.7554 21.992C48.5474 21.992 46.8674 20.456 46.8674 18.344C46.8674 16.2 48.5474 14.696 50.7554 14.696ZM50.7554 16.136C49.4754 16.136 48.4994 17 48.4994 18.344C48.4994 19.656 49.4754 20.52 50.7554 20.52C52.0354 20.52 52.9954 19.656 52.9954 18.344C52.9954 17 52.0354 16.136 50.7554 16.136Z" fill="#111111"/>
</svg>
