<svg width="297" height="60" viewBox="0 0 297 60" fill="none" xmlns="http://www.w3.org/2000/svg">
<rect x="0.5" y="0.5" width="296" height="59" rx="29.5" stroke="#CACACB"/>
<path d="M140.592 24.064V26.64C140.592 29.248 142.224 31.856 144.304 32.848L143.536 33.888C141.904 33.072 140.592 31.36 139.936 29.344C139.312 31.472 137.984 33.28 136.368 34.144L135.568 33.104C137.648 32.064 139.28 29.296 139.28 26.64V24.064H140.592ZM146.08 22.832H147.392V37.2H146.08V28.768H142.752V27.696H146.08V22.832ZM150.287 34.192H163.295V35.28H150.287V34.192ZM151.823 23.872H153.119V26.496H160.447V23.872H161.727V31.344H151.823V23.872ZM153.119 27.552V30.272H160.447V27.552H153.119Z" fill="#111111"/>
</svg>
