<svg width="116" height="40" viewBox="0 0 116 40" fill="none" xmlns="http://www.w3.org/2000/svg">
<rect width="115.45" height="40" rx="20" fill="white"/>
<path fill-rule="evenodd" clip-rule="evenodd" d="M18.1333 16.6216L22.4 19.7L20.7708 24.6816C20.5833 25.255 21.2442 25.7325 21.735 25.3783L26 22.2991L30.2667 25.3783C30.7558 25.7325 31.4175 25.255 31.2292 24.6816L29.6008 19.7L33.8658 16.6216C34.3567 16.2675 34.1042 15.495 33.4975 15.495H28.225L28.0867 15.0725L26.5958 10.5141C26.4083 9.93914 25.5917 9.93914 25.4042 10.5141L23.775 15.4941H18.5025C17.8958 15.4941 17.6442 16.2666 18.1342 16.6208L18.1333 16.6216Z" fill="#111111" stroke="#111111" stroke-width="1.25"/>
<path d="M49.744 21.206V19.064H47.91V17.902H49.744V16.754H47.91V15.592H49.744V13.436H51.186V21.206H49.744ZM43.584 15.508V19.372C44.116 19.358 44.648 19.344 45.194 19.316V15.508H43.584ZM48.008 19.092L48.092 20.142C45.712 20.548 42.912 20.59 40.882 20.59L40.714 19.4C41.176 19.4 41.68 19.4 42.198 19.4V15.508H41.05V14.332H47.714V15.508H46.58V19.218C47.07 19.19 47.546 19.148 48.008 19.092ZM46.972 24.972C48.778 24.972 49.8 24.538 49.8 23.768C49.8 22.97 48.778 22.55 46.972 22.55C45.166 22.55 44.158 22.97 44.158 23.768C44.158 24.538 45.166 24.972 46.972 24.972ZM46.972 21.43C49.618 21.43 51.242 22.284 51.242 23.768C51.242 25.224 49.618 26.078 46.972 26.078C44.326 26.078 42.716 25.224 42.716 23.768C42.716 22.284 44.326 21.43 46.972 21.43ZM61.0969 19.344L60.3969 20.464C58.9969 19.974 57.9749 18.994 57.4429 17.762C56.8829 19.12 55.8189 20.226 54.3209 20.744L53.5789 19.61C55.5389 18.924 56.6869 17.258 56.6869 15.536V15.326H54.0129V14.164H60.7749V15.326H58.1429V15.536C58.1429 17.104 59.2209 18.686 61.0969 19.344ZM57.1769 22.508V24.776H62.6509V22.508H57.1769ZM55.7629 25.924V21.36H64.0649V25.924H55.7629ZM62.6229 13.422H64.0649V20.786H62.6229V17.678H60.3829V16.502H62.6229V13.422ZM74.1243 22.41V24.776H76.5463V22.41H74.1243ZM77.9743 22.41V24.776H79.9203V25.924H70.7363V24.776H72.6963V22.41H70.8623V21.262H79.8223V22.41H77.9743ZM76.0563 19.022H81.0403V20.184H69.6023V19.022H74.6003V17.664H71.1143V13.702H72.5563V16.502H79.7943V17.664H76.0563V19.022ZM88.2073 13.702C90.9653 13.702 92.7153 14.612 92.7153 16.124C92.7153 17.622 90.9653 18.546 88.2073 18.546C85.4493 18.546 83.6993 17.622 83.6993 16.124C83.6993 14.612 85.4493 13.702 88.2073 13.702ZM88.2073 14.822C86.3313 14.822 85.1833 15.284 85.1833 16.124C85.1833 16.95 86.3313 17.412 88.2073 17.412C90.0833 17.412 91.2173 16.95 91.2173 16.124C91.2173 15.284 90.0833 14.822 88.2073 14.822ZM83.8533 21.696H92.5333V25.924H83.8533V21.696ZM91.1193 22.844H85.2812V24.776H91.1193V22.844ZM82.4813 19.47H93.9193V20.618H82.4813V19.47Z" fill="#111111"/>
</svg>
