<svg width="116" height="40" viewBox="0 0 116 40" fill="none" xmlns="http://www.w3.org/2000/svg">
<rect width="115.45" height="40" rx="20" fill="white"/>
<path fill-rule="evenodd" clip-rule="evenodd" d="M18.1333 16.6216L22.4 19.7L20.7708 24.6816C20.5833 25.255 21.2442 25.7325 21.735 25.3783L26 22.2991L30.2667 25.3783C30.7558 25.7325 31.4175 25.255 31.2292 24.6816L29.6008 19.7L33.8658 16.6216C34.3567 16.2675 34.1042 15.495 33.4975 15.495H28.225L28.0867 15.0725L26.5958 10.5141C26.4083 9.93914 25.5917 9.93914 25.4042 10.5141L23.775 15.4941H18.5025C17.8958 15.4941 17.6442 16.2666 18.1342 16.6208L18.1333 16.6216Z" fill="#111111" stroke="#111111" stroke-width="1.25"/>
<path d="M47.938 15.55H50.598V16.726H47.938V15.55ZM47.938 17.888H50.598V19.078H47.938V17.888ZM40.98 14.276H47.728V15.466H40.98V14.276ZM40.812 20.604L40.658 19.386C42.73 19.386 45.67 19.358 48.022 19.078L48.106 20.156C45.684 20.562 42.856 20.604 40.812 20.604ZM42.142 15.242H43.556V19.806H42.142V15.242ZM45.166 15.242H46.566V19.806H45.166V15.242ZM49.772 13.366H51.242V21.234H49.772V13.366ZM46.972 21.458C49.66 21.458 51.284 22.312 51.284 23.81C51.284 25.294 49.66 26.148 46.972 26.148C44.284 26.148 42.66 25.294 42.66 23.81C42.66 22.312 44.284 21.458 46.972 21.458ZM46.972 22.592C45.152 22.592 44.116 23.012 44.116 23.81C44.116 24.594 45.152 25.028 46.972 25.028C48.806 25.028 49.828 24.594 49.828 23.81C49.828 23.012 48.806 22.592 46.972 22.592ZM60.3829 16.446H63.0429V17.65H60.3829V16.446ZM62.6509 13.366H64.1209V20.814H62.6509V13.366ZM55.7209 21.388H64.1209V26.008H55.7209V21.388ZM62.6789 22.55H57.1629V24.832H62.6789V22.55ZM56.6449 14.57H57.8349V15.508C57.8349 17.874 56.5329 19.96 54.2509 20.758L53.5089 19.596C55.4969 18.91 56.6449 17.23 56.6449 15.508V14.57ZM56.9389 14.57H58.1149V15.494C58.1149 17.076 59.2069 18.658 61.1249 19.33L60.3969 20.492C58.1849 19.722 56.9389 17.706 56.9389 15.494V14.57ZM53.9289 14.108H60.7889V15.284H53.9289V14.108ZM71.0583 16.46H79.8363V17.636H71.0583V16.46ZM71.0583 13.632H72.5143V17.23H71.0583V13.632ZM69.5463 19.022H81.1103V20.184H69.5463V19.022ZM74.5863 17.3H76.0423V19.848H74.5863V17.3ZM70.8063 21.276H79.8503V22.438H70.8063V21.276ZM70.6803 24.832H79.9763V26.008H70.6803V24.832ZM72.6403 21.598H74.0963V25.392H72.6403V21.598ZM76.5603 21.598H78.0023V25.392H76.5603V21.598ZM88.1933 13.632C90.9933 13.632 92.7573 14.556 92.7573 16.082C92.7573 17.622 90.9933 18.532 88.1933 18.532C85.4073 18.532 83.6433 17.622 83.6433 16.082C83.6433 14.556 85.4073 13.632 88.1933 13.632ZM88.1933 14.78C86.2893 14.78 85.1553 15.228 85.1553 16.082C85.1553 16.922 86.2893 17.384 88.1933 17.384C90.0973 17.384 91.2453 16.922 91.2453 16.082C91.2453 15.228 90.0973 14.78 88.1933 14.78ZM83.7973 21.724H92.5753V26.008H83.7973V21.724ZM91.1473 22.9H85.2393V24.832H91.1473V22.9ZM82.4113 19.47H93.9753V20.632H82.4113V19.47Z" fill="#111111"/>
</svg>
