<svg width="91" height="40" viewBox="0 0 91 40" fill="none" xmlns="http://www.w3.org/2000/svg">
<rect width="91" height="40" rx="20" fill="white"/>
<path d="M29.9505 20.84V22.2H24.1905V28.232H22.5265V22.2H16.8785V20.84H26.2705C26.6865 18.824 26.6865 17.32 26.6865 15.992H18.4465V14.664H28.3025V15.928C28.3025 17.288 28.3025 18.792 27.9345 20.84H29.9505ZM33.6133 16.68V23.16H36.1093V16.68H33.6133ZM32.0773 24.472V15.368H37.6453V24.472H32.0773ZM42.3653 13.784H43.9333V28.216H42.3653V20.76H40.7173V27.544H39.1653V14.056H40.7173V19.416H42.3653V13.784ZM50.524 23.768C51.692 23.768 52.54 22.968 52.54 21.752C52.54 20.536 51.692 19.736 50.524 19.736C49.356 19.736 48.508 20.536 48.508 21.752C48.508 22.968 49.356 23.768 50.524 23.768ZM50.524 18.376C52.588 18.376 54.108 19.784 54.108 21.752C54.108 23.736 52.588 25.128 50.524 25.128C48.444 25.128 46.94 23.736 46.94 21.752C46.94 19.784 48.444 18.376 50.524 18.376ZM51.324 14.008V16.008H54.7V17.352H46.236V16.008H49.676V14.008H51.324ZM59.756 19.592V20.968H57.532V28.248H55.868V13.784H57.532V19.592H59.756ZM61.8508 15.304H68.6988C68.6988 19.608 66.9708 23.256 62.0108 25.656L61.1308 24.344C64.9227 22.52 66.7148 19.976 67.0028 16.648H61.8508V15.304ZM71.3068 13.784H72.9548V28.232H71.3068V13.784Z" fill="#111111"/>
</svg>
