<svg width="24" height="24" viewBox="0 0 24 24" fill="none" xmlns="http://www.w3.org/2000/svg">
<path d="M18 20.25H6C5.40326 20.25 4.83097 20.0129 4.40901 19.591C3.98705 19.169 3.75 18.5967 3.75 18V7.5C3.75 6.90326 3.98705 6.33097 4.40901 5.90901C4.83097 5.48705 5.40326 5.25 6 5.25H18C18.5967 5.25 19.169 5.48705 19.591 5.90901C20.0129 6.33097 20.25 6.90326 20.25 7.5V18C20.25 18.5967 20.0129 19.169 19.591 19.591C19.169 20.0129 18.5967 20.25 18 20.25Z" stroke="#111111" stroke-width="1.5"/>
<path d="M20.25 9.75H3.75M8.25 3V7.5M15.75 3V7.5" stroke="#111111" stroke-width="1.5"/>
</svg>
