<svg width="360" height="67" viewBox="0 0 360 67" fill="none" xmlns="http://www.w3.org/2000/svg">
<rect width="360" height="67" fill="#111111"/>
<path d="M152.872 34.356L152.28 33.06C155.032 32.692 157.064 31.108 157.16 29.428H152.76V28.1H163.4V29.428H159.032C159.128 31.108 161.16 32.692 163.912 33.06L163.32 34.356C160.936 34.004 158.968 32.82 158.088 31.22C157.208 32.82 155.256 34.004 152.872 34.356ZM164.632 35.412L164.616 36.74H158.872V41.748H157.224V36.74H151.56V35.412H164.632ZM176.054 31.828V29.236H169.542V31.828H176.054ZM177.67 27.924V33.14H167.926V27.924H177.67ZM169.51 37.284V40.116H177.91V41.46H167.862V37.284H169.51ZM166.262 34.564H179.366V35.892H173.766V38.596H172.118V35.892H166.262V34.564ZM185.205 37.268C186.373 37.268 187.221 36.468 187.221 35.252C187.221 34.036 186.373 33.236 185.205 33.236C184.037 33.236 183.189 34.036 183.189 35.252C183.189 36.468 184.037 37.268 185.205 37.268ZM185.205 31.876C187.269 31.876 188.789 33.284 188.789 35.252C188.789 37.236 187.269 38.628 185.205 38.628C183.125 38.628 181.621 37.236 181.621 35.252C181.621 33.284 183.125 31.876 185.205 31.876ZM186.005 27.508V29.508H189.381V30.852H180.917V29.508H184.357V27.508H186.005ZM194.437 33.092V34.468H192.213V41.748H190.549V27.284H192.213V33.092H194.437ZM196.532 28.804H203.38C203.38 33.108 201.652 36.756 196.692 39.156L195.812 37.844C199.604 36.02 201.396 33.476 201.684 30.148H196.532V28.804ZM205.988 27.284H207.636V41.732H205.988V27.284Z" fill="white"/>
</svg>
