<svg width="297" height="60" viewBox="0 0 297 60" fill="none" xmlns="http://www.w3.org/2000/svg">
<rect width="297" height="60" rx="30" fill="#9E9EA0"/>
<path d="M136.768 29.904L136.208 28.864C138.272 28.384 139.664 27.072 139.664 25.536V25.504H136.496V24.464H139.648V22.864H140.96V24.464H144.128V25.504H140.96V25.536C140.96 26.976 142.352 28.208 144.384 28.672L143.856 29.696C142.208 29.296 140.96 28.432 140.336 27.264C139.728 28.528 138.448 29.488 136.768 29.904ZM145.008 30.432L145.104 31.408C143.76 31.632 142.352 31.776 140.992 31.856V36.768H139.68V31.936C138.272 31.984 136.912 32 135.712 32L135.536 30.896C138.272 30.896 141.872 30.88 145.008 30.432ZM146.032 22.848H147.344V37.2H146.032V22.848ZM162.671 29.84L162.111 30.928C159.919 30.464 157.663 28.976 156.735 26.928C155.807 28.976 153.567 30.464 151.359 30.928L150.815 29.84C153.327 29.392 156.047 27.28 156.047 24.896V23.792H157.423V24.896C157.423 27.28 160.159 29.392 162.671 29.84ZM157.391 34.24H163.311V35.312H150.287V34.24H156.079V30.752H157.391V34.24Z" fill="#E5E5E5"/>
</svg>
