<svg width="297" height="60" viewBox="0 0 297 60" fill="none" xmlns="http://www.w3.org/2000/svg">
<rect width="297" height="60" rx="30" fill="#111111"/>
<path d="M144.096 24.144V25.136H135.856V24.144H139.328V22.736H140.64V24.144H144.096ZM137.872 27.792C137.872 28.544 138.688 29.024 139.984 29.024C141.248 29.024 142.08 28.544 142.08 27.792C142.08 27.04 141.248 26.576 139.984 26.576C138.688 26.576 137.872 27.04 137.872 27.792ZM144.528 30.544L144.624 31.488C141.552 32.016 138.16 32.032 135.648 32.048L135.504 30.992C136.64 30.992 137.952 30.992 139.328 30.944V29.904C137.664 29.744 136.624 28.976 136.624 27.792C136.624 26.48 137.952 25.664 139.984 25.664C141.984 25.664 143.328 26.48 143.328 27.792C143.328 28.96 142.288 29.728 140.64 29.904V30.896C141.952 30.832 143.28 30.736 144.528 30.544ZM137.248 34.224V33.184H146.688V37.184H145.376V34.224H137.248ZM148.784 27.184V28.272H146.688V32.464H145.376V22.848H146.688V27.184H148.784ZM162.063 22.848V33.328H160.751V22.848H162.063ZM151.903 27.36C151.903 28.784 152.959 29.776 154.351 29.776C155.775 29.776 156.831 28.784 156.831 27.36C156.831 25.968 155.775 24.976 154.351 24.976C152.959 24.976 151.903 25.968 151.903 27.36ZM158.111 27.36C158.111 29.44 156.495 30.912 154.351 30.912C152.223 30.912 150.623 29.44 150.623 27.36C150.623 25.296 152.223 23.84 154.351 23.84C156.495 23.84 158.111 25.296 158.111 27.36ZM154.143 35.792H162.495V36.864H152.831V32.256H154.143V35.792Z" fill="white"/>
</svg>
