<svg width="36" height="36" viewBox="0 0 36 36" fill="none" xmlns="http://www.w3.org/2000/svg">
<path d="M14.25 14.25V12C14.25 11.4033 14.4871 10.831 14.909 10.409C15.331 9.98705 15.9033 9.75 16.5 9.75H19.5C20.0967 9.75 20.669 9.98705 21.091 10.409C21.5129 10.831 21.75 11.4033 21.75 12C21.75 12.5967 21.5129 13.169 21.091 13.591C20.669 14.0129 20.0967 14.25 19.5 14.25H9.75V22.5C9.75 23.4946 10.1451 24.4484 10.8483 25.1517C11.5516 25.8549 12.5054 26.25 13.5 26.25H22.5C23.4946 26.25 24.4484 25.8549 25.1517 25.1517C25.8549 24.4484 26.25 23.4946 26.25 22.5V14.25H23.5" stroke="#111111" stroke-width="1.5"/>
<path d="M16.1219 17.369C16.3379 17.369 16.5479 17.351 16.7519 17.315C16.9559 17.279 17.1389 17.219 17.3009 17.135C17.4689 17.051 17.6099 16.943 17.7239 16.811C17.8439 16.679 17.9219 16.517 17.9579 16.325H18.7949V22.625H17.6699V18.179H16.1219V17.369Z" fill="#111111"/>
<a href="https://www.figma.com/design/ljNayoxlhNbIbkSaRG6bEc/%EB%82%98%EC%9D%B4%ED%82%A4?node-id=8-902">
<rect fill="black" fill-opacity="0" x="0.154637" y="2.3805" width="5.004" height="10.989"/>
</a>
</svg>
