<svg width="36" height="36" viewBox="0 0 36 36" fill="none" xmlns="http://www.w3.org/2000/svg">
<path d="M22.794 9.75002C24.118 9.75002 25.362 10.266 26.298 11.201C27.2262 12.1309 27.7475 13.3911 27.7475 14.705C27.7475 16.0189 27.2262 17.2791 26.298 18.209L18 26.508L9.70096 18.209C8.77307 17.2791 8.25195 16.0192 8.25195 14.7055C8.25195 13.3919 8.77307 12.1319 9.70096 11.202C10.16 10.7403 10.706 10.3743 11.3075 10.125C11.909 9.87578 12.5539 9.74832 13.205 9.75002C14.529 9.75002 15.773 10.266 16.709 11.201L17.469 11.961L18 12.492L18.53 11.961L19.29 11.201C19.7492 10.7396 20.2953 10.3738 20.8967 10.1248C21.4982 9.87573 22.143 9.74835 22.794 9.75002Z" stroke="#111111" stroke-width="1.5"/>
</svg>
